%TF.GenerationSoftware,KiCad,Pcbnew,7.0.9*%
%TF.CreationDate,2024-01-25T00:03:06-08:00*%
%TF.ProjectId,Max7219_FC16,4d617837-3231-4395-9f46-4331362e6b69,rev?*%
%TF.SameCoordinates,Original*%
%TF.FileFunction,Legend,Top*%
%TF.FilePolarity,Positive*%
%FSLAX46Y46*%
G04 Gerber Fmt 4.6, Leading zero omitted, Abs format (unit mm)*
G04 Created by KiCad (PCBNEW 7.0.9) date 2024-01-25 00:03:06*
%MOMM*%
%LPD*%
G01*
G04 APERTURE LIST*
%ADD10C,0.150000*%
%ADD11C,0.100000*%
%ADD12C,0.120000*%
G04 APERTURE END LIST*
D10*
X49196666Y-51575619D02*
X49196666Y-52289904D01*
X49196666Y-52289904D02*
X49149047Y-52432761D01*
X49149047Y-52432761D02*
X49053809Y-52528000D01*
X49053809Y-52528000D02*
X48910952Y-52575619D01*
X48910952Y-52575619D02*
X48815714Y-52575619D01*
X49625238Y-51670857D02*
X49672857Y-51623238D01*
X49672857Y-51623238D02*
X49768095Y-51575619D01*
X49768095Y-51575619D02*
X50006190Y-51575619D01*
X50006190Y-51575619D02*
X50101428Y-51623238D01*
X50101428Y-51623238D02*
X50149047Y-51670857D01*
X50149047Y-51670857D02*
X50196666Y-51766095D01*
X50196666Y-51766095D02*
X50196666Y-51861333D01*
X50196666Y-51861333D02*
X50149047Y-52004190D01*
X50149047Y-52004190D02*
X49577619Y-52575619D01*
X49577619Y-52575619D02*
X50196666Y-52575619D01*
X111085333Y-60557580D02*
X111037714Y-60605200D01*
X111037714Y-60605200D02*
X110894857Y-60652819D01*
X110894857Y-60652819D02*
X110799619Y-60652819D01*
X110799619Y-60652819D02*
X110656762Y-60605200D01*
X110656762Y-60605200D02*
X110561524Y-60509961D01*
X110561524Y-60509961D02*
X110513905Y-60414723D01*
X110513905Y-60414723D02*
X110466286Y-60224247D01*
X110466286Y-60224247D02*
X110466286Y-60081390D01*
X110466286Y-60081390D02*
X110513905Y-59890914D01*
X110513905Y-59890914D02*
X110561524Y-59795676D01*
X110561524Y-59795676D02*
X110656762Y-59700438D01*
X110656762Y-59700438D02*
X110799619Y-59652819D01*
X110799619Y-59652819D02*
X110894857Y-59652819D01*
X110894857Y-59652819D02*
X111037714Y-59700438D01*
X111037714Y-59700438D02*
X111085333Y-59748057D01*
X111418667Y-59652819D02*
X112037714Y-59652819D01*
X112037714Y-59652819D02*
X111704381Y-60033771D01*
X111704381Y-60033771D02*
X111847238Y-60033771D01*
X111847238Y-60033771D02*
X111942476Y-60081390D01*
X111942476Y-60081390D02*
X111990095Y-60129009D01*
X111990095Y-60129009D02*
X112037714Y-60224247D01*
X112037714Y-60224247D02*
X112037714Y-60462342D01*
X112037714Y-60462342D02*
X111990095Y-60557580D01*
X111990095Y-60557580D02*
X111942476Y-60605200D01*
X111942476Y-60605200D02*
X111847238Y-60652819D01*
X111847238Y-60652819D02*
X111561524Y-60652819D01*
X111561524Y-60652819D02*
X111466286Y-60605200D01*
X111466286Y-60605200D02*
X111418667Y-60557580D01*
X108723133Y-60502019D02*
X108389800Y-60025828D01*
X108151705Y-60502019D02*
X108151705Y-59502019D01*
X108151705Y-59502019D02*
X108532657Y-59502019D01*
X108532657Y-59502019D02*
X108627895Y-59549638D01*
X108627895Y-59549638D02*
X108675514Y-59597257D01*
X108675514Y-59597257D02*
X108723133Y-59692495D01*
X108723133Y-59692495D02*
X108723133Y-59835352D01*
X108723133Y-59835352D02*
X108675514Y-59930590D01*
X108675514Y-59930590D02*
X108627895Y-59978209D01*
X108627895Y-59978209D02*
X108532657Y-60025828D01*
X108532657Y-60025828D02*
X108151705Y-60025828D01*
X109056467Y-59502019D02*
X109675514Y-59502019D01*
X109675514Y-59502019D02*
X109342181Y-59882971D01*
X109342181Y-59882971D02*
X109485038Y-59882971D01*
X109485038Y-59882971D02*
X109580276Y-59930590D01*
X109580276Y-59930590D02*
X109627895Y-59978209D01*
X109627895Y-59978209D02*
X109675514Y-60073447D01*
X109675514Y-60073447D02*
X109675514Y-60311542D01*
X109675514Y-60311542D02*
X109627895Y-60406780D01*
X109627895Y-60406780D02*
X109580276Y-60454400D01*
X109580276Y-60454400D02*
X109485038Y-60502019D01*
X109485038Y-60502019D02*
X109199324Y-60502019D01*
X109199324Y-60502019D02*
X109104086Y-60454400D01*
X109104086Y-60454400D02*
X109056467Y-60406780D01*
X116946487Y-52611904D02*
X117756010Y-52611904D01*
X117756010Y-52611904D02*
X117851248Y-52564285D01*
X117851248Y-52564285D02*
X117898868Y-52516666D01*
X117898868Y-52516666D02*
X117946487Y-52421428D01*
X117946487Y-52421428D02*
X117946487Y-52230952D01*
X117946487Y-52230952D02*
X117898868Y-52135714D01*
X117898868Y-52135714D02*
X117851248Y-52088095D01*
X117851248Y-52088095D02*
X117756010Y-52040476D01*
X117756010Y-52040476D02*
X116946487Y-52040476D01*
X116946487Y-51088095D02*
X116946487Y-51564285D01*
X116946487Y-51564285D02*
X117422677Y-51611904D01*
X117422677Y-51611904D02*
X117375058Y-51564285D01*
X117375058Y-51564285D02*
X117327439Y-51469047D01*
X117327439Y-51469047D02*
X117327439Y-51230952D01*
X117327439Y-51230952D02*
X117375058Y-51135714D01*
X117375058Y-51135714D02*
X117422677Y-51088095D01*
X117422677Y-51088095D02*
X117517915Y-51040476D01*
X117517915Y-51040476D02*
X117756010Y-51040476D01*
X117756010Y-51040476D02*
X117851248Y-51088095D01*
X117851248Y-51088095D02*
X117898868Y-51135714D01*
X117898868Y-51135714D02*
X117946487Y-51230952D01*
X117946487Y-51230952D02*
X117946487Y-51469047D01*
X117946487Y-51469047D02*
X117898868Y-51564285D01*
X117898868Y-51564285D02*
X117851248Y-51611904D01*
D11*
X80975295Y-44110619D02*
X80975295Y-44920142D01*
X80975295Y-44920142D02*
X81022914Y-45015380D01*
X81022914Y-45015380D02*
X81070533Y-45063000D01*
X81070533Y-45063000D02*
X81165771Y-45110619D01*
X81165771Y-45110619D02*
X81356247Y-45110619D01*
X81356247Y-45110619D02*
X81451485Y-45063000D01*
X81451485Y-45063000D02*
X81499104Y-45015380D01*
X81499104Y-45015380D02*
X81546723Y-44920142D01*
X81546723Y-44920142D02*
X81546723Y-44110619D01*
X81975295Y-44205857D02*
X82022914Y-44158238D01*
X82022914Y-44158238D02*
X82118152Y-44110619D01*
X82118152Y-44110619D02*
X82356247Y-44110619D01*
X82356247Y-44110619D02*
X82451485Y-44158238D01*
X82451485Y-44158238D02*
X82499104Y-44205857D01*
X82499104Y-44205857D02*
X82546723Y-44301095D01*
X82546723Y-44301095D02*
X82546723Y-44396333D01*
X82546723Y-44396333D02*
X82499104Y-44539190D01*
X82499104Y-44539190D02*
X81927676Y-45110619D01*
X81927676Y-45110619D02*
X82546723Y-45110619D01*
D10*
X84859695Y-43789219D02*
X84859695Y-44598742D01*
X84859695Y-44598742D02*
X84907314Y-44693980D01*
X84907314Y-44693980D02*
X84954933Y-44741600D01*
X84954933Y-44741600D02*
X85050171Y-44789219D01*
X85050171Y-44789219D02*
X85240647Y-44789219D01*
X85240647Y-44789219D02*
X85335885Y-44741600D01*
X85335885Y-44741600D02*
X85383504Y-44693980D01*
X85383504Y-44693980D02*
X85431123Y-44598742D01*
X85431123Y-44598742D02*
X85431123Y-43789219D01*
X86431123Y-44789219D02*
X85859695Y-44789219D01*
X86145409Y-44789219D02*
X86145409Y-43789219D01*
X86145409Y-43789219D02*
X86050171Y-43932076D01*
X86050171Y-43932076D02*
X85954933Y-44027314D01*
X85954933Y-44027314D02*
X85859695Y-44074933D01*
X92492533Y-55268019D02*
X92159200Y-54791828D01*
X91921105Y-55268019D02*
X91921105Y-54268019D01*
X91921105Y-54268019D02*
X92302057Y-54268019D01*
X92302057Y-54268019D02*
X92397295Y-54315638D01*
X92397295Y-54315638D02*
X92444914Y-54363257D01*
X92444914Y-54363257D02*
X92492533Y-54458495D01*
X92492533Y-54458495D02*
X92492533Y-54601352D01*
X92492533Y-54601352D02*
X92444914Y-54696590D01*
X92444914Y-54696590D02*
X92397295Y-54744209D01*
X92397295Y-54744209D02*
X92302057Y-54791828D01*
X92302057Y-54791828D02*
X91921105Y-54791828D01*
X92873486Y-54363257D02*
X92921105Y-54315638D01*
X92921105Y-54315638D02*
X93016343Y-54268019D01*
X93016343Y-54268019D02*
X93254438Y-54268019D01*
X93254438Y-54268019D02*
X93349676Y-54315638D01*
X93349676Y-54315638D02*
X93397295Y-54363257D01*
X93397295Y-54363257D02*
X93444914Y-54458495D01*
X93444914Y-54458495D02*
X93444914Y-54553733D01*
X93444914Y-54553733D02*
X93397295Y-54696590D01*
X93397295Y-54696590D02*
X92825867Y-55268019D01*
X92825867Y-55268019D02*
X93444914Y-55268019D01*
X68895933Y-54912419D02*
X68562600Y-54436228D01*
X68324505Y-54912419D02*
X68324505Y-53912419D01*
X68324505Y-53912419D02*
X68705457Y-53912419D01*
X68705457Y-53912419D02*
X68800695Y-53960038D01*
X68800695Y-53960038D02*
X68848314Y-54007657D01*
X68848314Y-54007657D02*
X68895933Y-54102895D01*
X68895933Y-54102895D02*
X68895933Y-54245752D01*
X68895933Y-54245752D02*
X68848314Y-54340990D01*
X68848314Y-54340990D02*
X68800695Y-54388609D01*
X68800695Y-54388609D02*
X68705457Y-54436228D01*
X68705457Y-54436228D02*
X68324505Y-54436228D01*
X69848314Y-54912419D02*
X69276886Y-54912419D01*
X69562600Y-54912419D02*
X69562600Y-53912419D01*
X69562600Y-53912419D02*
X69467362Y-54055276D01*
X69467362Y-54055276D02*
X69372124Y-54150514D01*
X69372124Y-54150514D02*
X69276886Y-54198133D01*
X94702333Y-55274380D02*
X94654714Y-55322000D01*
X94654714Y-55322000D02*
X94511857Y-55369619D01*
X94511857Y-55369619D02*
X94416619Y-55369619D01*
X94416619Y-55369619D02*
X94273762Y-55322000D01*
X94273762Y-55322000D02*
X94178524Y-55226761D01*
X94178524Y-55226761D02*
X94130905Y-55131523D01*
X94130905Y-55131523D02*
X94083286Y-54941047D01*
X94083286Y-54941047D02*
X94083286Y-54798190D01*
X94083286Y-54798190D02*
X94130905Y-54607714D01*
X94130905Y-54607714D02*
X94178524Y-54512476D01*
X94178524Y-54512476D02*
X94273762Y-54417238D01*
X94273762Y-54417238D02*
X94416619Y-54369619D01*
X94416619Y-54369619D02*
X94511857Y-54369619D01*
X94511857Y-54369619D02*
X94654714Y-54417238D01*
X94654714Y-54417238D02*
X94702333Y-54464857D01*
X95083286Y-54464857D02*
X95130905Y-54417238D01*
X95130905Y-54417238D02*
X95226143Y-54369619D01*
X95226143Y-54369619D02*
X95464238Y-54369619D01*
X95464238Y-54369619D02*
X95559476Y-54417238D01*
X95559476Y-54417238D02*
X95607095Y-54464857D01*
X95607095Y-54464857D02*
X95654714Y-54560095D01*
X95654714Y-54560095D02*
X95654714Y-54655333D01*
X95654714Y-54655333D02*
X95607095Y-54798190D01*
X95607095Y-54798190D02*
X95035667Y-55369619D01*
X95035667Y-55369619D02*
X95654714Y-55369619D01*
X70927933Y-54867980D02*
X70880314Y-54915600D01*
X70880314Y-54915600D02*
X70737457Y-54963219D01*
X70737457Y-54963219D02*
X70642219Y-54963219D01*
X70642219Y-54963219D02*
X70499362Y-54915600D01*
X70499362Y-54915600D02*
X70404124Y-54820361D01*
X70404124Y-54820361D02*
X70356505Y-54725123D01*
X70356505Y-54725123D02*
X70308886Y-54534647D01*
X70308886Y-54534647D02*
X70308886Y-54391790D01*
X70308886Y-54391790D02*
X70356505Y-54201314D01*
X70356505Y-54201314D02*
X70404124Y-54106076D01*
X70404124Y-54106076D02*
X70499362Y-54010838D01*
X70499362Y-54010838D02*
X70642219Y-53963219D01*
X70642219Y-53963219D02*
X70737457Y-53963219D01*
X70737457Y-53963219D02*
X70880314Y-54010838D01*
X70880314Y-54010838D02*
X70927933Y-54058457D01*
X71880314Y-54963219D02*
X71308886Y-54963219D01*
X71594600Y-54963219D02*
X71594600Y-53963219D01*
X71594600Y-53963219D02*
X71499362Y-54106076D01*
X71499362Y-54106076D02*
X71404124Y-54201314D01*
X71404124Y-54201314D02*
X71308886Y-54248933D01*
X137577533Y-60836980D02*
X137529914Y-60884600D01*
X137529914Y-60884600D02*
X137387057Y-60932219D01*
X137387057Y-60932219D02*
X137291819Y-60932219D01*
X137291819Y-60932219D02*
X137148962Y-60884600D01*
X137148962Y-60884600D02*
X137053724Y-60789361D01*
X137053724Y-60789361D02*
X137006105Y-60694123D01*
X137006105Y-60694123D02*
X136958486Y-60503647D01*
X136958486Y-60503647D02*
X136958486Y-60360790D01*
X136958486Y-60360790D02*
X137006105Y-60170314D01*
X137006105Y-60170314D02*
X137053724Y-60075076D01*
X137053724Y-60075076D02*
X137148962Y-59979838D01*
X137148962Y-59979838D02*
X137291819Y-59932219D01*
X137291819Y-59932219D02*
X137387057Y-59932219D01*
X137387057Y-59932219D02*
X137529914Y-59979838D01*
X137529914Y-59979838D02*
X137577533Y-60027457D01*
X138434676Y-60265552D02*
X138434676Y-60932219D01*
X138196581Y-59884600D02*
X137958486Y-60598885D01*
X137958486Y-60598885D02*
X138577533Y-60598885D01*
X135518133Y-61008419D02*
X135184800Y-60532228D01*
X134946705Y-61008419D02*
X134946705Y-60008419D01*
X134946705Y-60008419D02*
X135327657Y-60008419D01*
X135327657Y-60008419D02*
X135422895Y-60056038D01*
X135422895Y-60056038D02*
X135470514Y-60103657D01*
X135470514Y-60103657D02*
X135518133Y-60198895D01*
X135518133Y-60198895D02*
X135518133Y-60341752D01*
X135518133Y-60341752D02*
X135470514Y-60436990D01*
X135470514Y-60436990D02*
X135422895Y-60484609D01*
X135422895Y-60484609D02*
X135327657Y-60532228D01*
X135327657Y-60532228D02*
X134946705Y-60532228D01*
X136375276Y-60341752D02*
X136375276Y-61008419D01*
X136137181Y-59960800D02*
X135899086Y-60675085D01*
X135899086Y-60675085D02*
X136518133Y-60675085D01*
X60983695Y-43804819D02*
X60983695Y-44614342D01*
X60983695Y-44614342D02*
X61031314Y-44709580D01*
X61031314Y-44709580D02*
X61078933Y-44757200D01*
X61078933Y-44757200D02*
X61174171Y-44804819D01*
X61174171Y-44804819D02*
X61364647Y-44804819D01*
X61364647Y-44804819D02*
X61459885Y-44757200D01*
X61459885Y-44757200D02*
X61507504Y-44709580D01*
X61507504Y-44709580D02*
X61555123Y-44614342D01*
X61555123Y-44614342D02*
X61555123Y-43804819D01*
X61936076Y-43804819D02*
X62555123Y-43804819D01*
X62555123Y-43804819D02*
X62221790Y-44185771D01*
X62221790Y-44185771D02*
X62364647Y-44185771D01*
X62364647Y-44185771D02*
X62459885Y-44233390D01*
X62459885Y-44233390D02*
X62507504Y-44281009D01*
X62507504Y-44281009D02*
X62555123Y-44376247D01*
X62555123Y-44376247D02*
X62555123Y-44614342D01*
X62555123Y-44614342D02*
X62507504Y-44709580D01*
X62507504Y-44709580D02*
X62459885Y-44757200D01*
X62459885Y-44757200D02*
X62364647Y-44804819D01*
X62364647Y-44804819D02*
X62078933Y-44804819D01*
X62078933Y-44804819D02*
X61983695Y-44757200D01*
X61983695Y-44757200D02*
X61936076Y-44709580D01*
X143690019Y-52808304D02*
X144499542Y-52808304D01*
X144499542Y-52808304D02*
X144594780Y-52760685D01*
X144594780Y-52760685D02*
X144642400Y-52713066D01*
X144642400Y-52713066D02*
X144690019Y-52617828D01*
X144690019Y-52617828D02*
X144690019Y-52427352D01*
X144690019Y-52427352D02*
X144642400Y-52332114D01*
X144642400Y-52332114D02*
X144594780Y-52284495D01*
X144594780Y-52284495D02*
X144499542Y-52236876D01*
X144499542Y-52236876D02*
X143690019Y-52236876D01*
X143690019Y-51855923D02*
X143690019Y-51189257D01*
X143690019Y-51189257D02*
X144690019Y-51617828D01*
D12*
%TO.C,J2*%
X52638000Y-49580800D02*
X52638000Y-59800800D01*
X49978000Y-46980800D02*
X51308000Y-46980800D01*
X49978000Y-49580800D02*
X49978000Y-59800800D01*
X49978000Y-59800800D02*
X52638000Y-59800800D01*
X49978000Y-49580800D02*
X52638000Y-49580800D01*
X49978000Y-48310800D02*
X49978000Y-46980800D01*
D11*
%TO.C,U6*%
X125600000Y-69000000D02*
X93600000Y-69000000D01*
X93600000Y-69000000D02*
X93600000Y-37000000D01*
X93600000Y-37000000D02*
X125600000Y-37000000D01*
X125600000Y-37000000D02*
X125600000Y-69000000D01*
D12*
%TO.C,C3*%
X111172164Y-58491800D02*
X111387836Y-58491800D01*
X111172164Y-59211800D02*
X111387836Y-59211800D01*
%TO.C,R3*%
X109043441Y-58497200D02*
X108736159Y-58497200D01*
X109043441Y-59257200D02*
X108736159Y-59257200D01*
%TO.C,U5*%
X116651668Y-47990000D02*
X116386668Y-47990000D01*
X116386668Y-47990000D02*
X116386668Y-46175000D01*
X101031668Y-47990000D02*
X101296668Y-47990000D01*
X116651668Y-51850000D02*
X116651668Y-47990000D01*
X116651668Y-51850000D02*
X116651668Y-55710000D01*
X101031668Y-51850000D02*
X101031668Y-47990000D01*
X101031668Y-51850000D02*
X101031668Y-55710000D01*
X116651668Y-55710000D02*
X116386668Y-55710000D01*
X101031668Y-55710000D02*
X101296668Y-55710000D01*
D11*
%TO.C,U2*%
X93292200Y-69009800D02*
X61292200Y-69009800D01*
X61292200Y-69009800D02*
X61292200Y-37009800D01*
X61292200Y-37009800D02*
X93292200Y-37009800D01*
X93292200Y-37009800D02*
X93292200Y-69009800D01*
D12*
%TO.C,U1*%
X89481600Y-60794400D02*
X89481600Y-60529400D01*
X81761600Y-45174400D02*
X81761600Y-45439400D01*
X85621600Y-60794400D02*
X81761600Y-60794400D01*
X81761600Y-45439400D02*
X79946600Y-45439400D01*
X89481600Y-45174400D02*
X89481600Y-45439400D01*
X85621600Y-60794400D02*
X89481600Y-60794400D01*
X85621600Y-45174400D02*
X89481600Y-45174400D01*
X81761600Y-60794400D02*
X81761600Y-60529400D01*
X85621600Y-45174400D02*
X81761600Y-45174400D01*
%TO.C,R2*%
X93064600Y-52807359D02*
X93064600Y-53114641D01*
X92304600Y-52807359D02*
X92304600Y-53114641D01*
%TO.C,R1*%
X69592200Y-52501759D02*
X69592200Y-52809041D01*
X68832200Y-52501759D02*
X68832200Y-52809041D01*
%TO.C,C2*%
X94051800Y-52924764D02*
X94051800Y-53140436D01*
X94771800Y-52924764D02*
X94771800Y-53140436D01*
%TO.C,C1*%
X70226600Y-52543764D02*
X70226600Y-52759436D01*
X70946600Y-52543764D02*
X70946600Y-52759436D01*
%TO.C,C4*%
X137709964Y-58669600D02*
X137925636Y-58669600D01*
X137709964Y-59389600D02*
X137925636Y-59389600D01*
D11*
%TO.C,U8*%
X157900000Y-69000000D02*
X125900000Y-69000000D01*
X125900000Y-69000000D02*
X125900000Y-37000000D01*
X125900000Y-37000000D02*
X157900000Y-37000000D01*
X157900000Y-37000000D02*
X157900000Y-69000000D01*
D12*
%TO.C,R4*%
X135838441Y-59409600D02*
X135531159Y-59409600D01*
X135838441Y-58649600D02*
X135531159Y-58649600D01*
%TO.C,U3*%
X57885600Y-45190000D02*
X57885600Y-45455000D01*
X57885600Y-45455000D02*
X56070600Y-45455000D01*
X57885600Y-60810000D02*
X57885600Y-60545000D01*
X61745600Y-45190000D02*
X57885600Y-45190000D01*
X61745600Y-45190000D02*
X65605600Y-45190000D01*
X61745600Y-60810000D02*
X57885600Y-60810000D01*
X61745600Y-60810000D02*
X65605600Y-60810000D01*
X65605600Y-45190000D02*
X65605600Y-45455000D01*
X65605600Y-60810000D02*
X65605600Y-60545000D01*
%TO.C,U7*%
X127775200Y-55906400D02*
X128040200Y-55906400D01*
X143395200Y-55906400D02*
X143130200Y-55906400D01*
X127775200Y-52046400D02*
X127775200Y-55906400D01*
X127775200Y-52046400D02*
X127775200Y-48186400D01*
X143395200Y-52046400D02*
X143395200Y-55906400D01*
X143395200Y-52046400D02*
X143395200Y-48186400D01*
X127775200Y-48186400D02*
X128040200Y-48186400D01*
X143130200Y-48186400D02*
X143130200Y-46371400D01*
X143395200Y-48186400D02*
X143130200Y-48186400D01*
D11*
%TO.C,U4*%
X61000000Y-69000000D02*
X29000000Y-69000000D01*
X29000000Y-69000000D02*
X29000000Y-37000000D01*
X29000000Y-37000000D02*
X61000000Y-37000000D01*
X61000000Y-37000000D02*
X61000000Y-69000000D01*
%TD*%
M02*
