%TF.GenerationSoftware,KiCad,Pcbnew,7.0.9*%
%TF.CreationDate,2024-01-25T00:03:06-08:00*%
%TF.ProjectId,Max7219_FC16,4d617837-3231-4395-9f46-4331362e6b69,rev?*%
%TF.SameCoordinates,Original*%
%TF.FileFunction,Soldermask,Bot*%
%TF.FilePolarity,Negative*%
%FSLAX46Y46*%
G04 Gerber Fmt 4.6, Leading zero omitted, Abs format (unit mm)*
G04 Created by KiCad (PCBNEW 7.0.9) date 2024-01-25 00:03:06*
%MOMM*%
%LPD*%
G01*
G04 APERTURE LIST*
G04 Aperture macros list*
%AMRoundRect*
0 Rectangle with rounded corners*
0 $1 Rounding radius*
0 $2 $3 $4 $5 $6 $7 $8 $9 X,Y pos of 4 corners*
0 Add a 4 corners polygon primitive as box body*
4,1,4,$2,$3,$4,$5,$6,$7,$8,$9,$2,$3,0*
0 Add four circle primitives for the rounded corners*
1,1,$1+$1,$2,$3*
1,1,$1+$1,$4,$5*
1,1,$1+$1,$6,$7*
1,1,$1+$1,$8,$9*
0 Add four rect primitives between the rounded corners*
20,1,$1+$1,$2,$3,$4,$5,0*
20,1,$1+$1,$4,$5,$6,$7,0*
20,1,$1+$1,$6,$7,$8,$9,0*
20,1,$1+$1,$8,$9,$2,$3,0*%
%AMFreePoly0*
4,1,6,0.725000,-0.725000,-0.125000,-0.725000,-0.725000,-0.125000,-0.725000,0.725000,0.725000,0.725000,0.725000,-0.725000,0.725000,-0.725000,$1*%
G04 Aperture macros list end*
%ADD10RoundRect,0.135000X-0.185000X0.135000X-0.185000X-0.135000X0.185000X-0.135000X0.185000X0.135000X0*%
%ADD11R,1.500000X1.000000*%
%ADD12R,1.700000X1.700000*%
%ADD13O,1.700000X1.700000*%
%ADD14O,1.550000X0.890000*%
%ADD15R,1.550000X1.500000*%
%ADD16O,0.950000X1.250000*%
%ADD17R,1.550000X1.200000*%
%ADD18R,1.350000X0.400000*%
%ADD19RoundRect,0.140000X0.140000X0.170000X-0.140000X0.170000X-0.140000X-0.170000X0.140000X-0.170000X0*%
%ADD20C,1.524000*%
%ADD21RoundRect,0.150000X0.512500X0.150000X-0.512500X0.150000X-0.512500X-0.150000X0.512500X-0.150000X0*%
%ADD22RoundRect,0.140000X-0.140000X-0.170000X0.140000X-0.170000X0.140000X0.170000X-0.140000X0.170000X0*%
%ADD23R,0.400000X0.800000*%
%ADD24R,0.800000X0.400000*%
%ADD25R,1.450000X1.450000*%
%ADD26FreePoly0,270.000000*%
%ADD27R,0.700000X0.700000*%
G04 APERTURE END LIST*
D10*
%TO.C,R10*%
X48666400Y-56784000D03*
X48666400Y-57804000D03*
%TD*%
D11*
%TO.C,JP1*%
X47879000Y-59471800D03*
X47879000Y-60771800D03*
%TD*%
D12*
%TO.C,J2*%
X51308000Y-48310800D03*
D13*
X51308000Y-50850800D03*
X51308000Y-53390800D03*
X51308000Y-55930800D03*
X51308000Y-58470800D03*
%TD*%
D10*
%TO.C,R9*%
X42646600Y-62012400D03*
X42646600Y-63032400D03*
%TD*%
%TO.C,R8*%
X43637200Y-62014400D03*
X43637200Y-63034400D03*
%TD*%
D14*
%TO.C,J1*%
X156438600Y-49500000D03*
D15*
X156438600Y-52000000D03*
D16*
X153738600Y-50500000D03*
D17*
X156438600Y-55900000D03*
D14*
X156438600Y-56500000D03*
D15*
X156438600Y-54000000D03*
D16*
X153738600Y-55500000D03*
D17*
X156438600Y-50100000D03*
D18*
X153738600Y-54300000D03*
X153738600Y-53650000D03*
X153738600Y-53000000D03*
X153738600Y-52350000D03*
X153738600Y-51700000D03*
%TD*%
D19*
%TO.C,C8*%
X41269800Y-63007000D03*
X40309800Y-63007000D03*
%TD*%
%TO.C,C7*%
X44988600Y-62295800D03*
X45948600Y-62295800D03*
%TD*%
D20*
%TO.C,U6*%
X118490000Y-40985800D03*
X115950000Y-40985800D03*
X113410000Y-40985800D03*
X110870000Y-40985800D03*
X108330000Y-40985800D03*
X105790000Y-40985800D03*
X103250000Y-40985800D03*
X100710000Y-40985800D03*
X100710000Y-64988800D03*
X103250000Y-64988800D03*
X105790000Y-64988800D03*
X108330000Y-64988800D03*
X110870000Y-64988800D03*
X113410000Y-64988800D03*
X115950000Y-64988800D03*
X118490000Y-64988800D03*
%TD*%
D21*
%TO.C,U10*%
X41518000Y-43281600D03*
X41518000Y-44231600D03*
X41518000Y-45181600D03*
X39243000Y-45181600D03*
X39243000Y-43281600D03*
%TD*%
D20*
%TO.C,U2*%
X86182200Y-40995600D03*
X83642200Y-40995600D03*
X81102200Y-40995600D03*
X78562200Y-40995600D03*
X76022200Y-40995600D03*
X73482200Y-40995600D03*
X70942200Y-40995600D03*
X68402200Y-40995600D03*
X68402200Y-64998600D03*
X70942200Y-64998600D03*
X73482200Y-64998600D03*
X76022200Y-64998600D03*
X78562200Y-64998600D03*
X81102200Y-64998600D03*
X83642200Y-64998600D03*
X86182200Y-64998600D03*
%TD*%
D10*
%TO.C,R7*%
X43256200Y-44297600D03*
X43256200Y-45317600D03*
%TD*%
%TO.C,R6*%
X49758600Y-46089000D03*
X49758600Y-47109000D03*
%TD*%
%TO.C,R5*%
X47345600Y-47117000D03*
X47345600Y-46097000D03*
%TD*%
D22*
%TO.C,C6*%
X37815400Y-44500800D03*
X36855400Y-44500800D03*
%TD*%
%TO.C,C5*%
X37764600Y-43281600D03*
X36804600Y-43281600D03*
%TD*%
D20*
%TO.C,U8*%
X150790000Y-64988800D03*
X148250000Y-64988800D03*
X145710000Y-64988800D03*
X143170000Y-64988800D03*
X140630000Y-64988800D03*
X138090000Y-64988800D03*
X135550000Y-64988800D03*
X133010000Y-64988800D03*
X133010000Y-40985800D03*
X135550000Y-40985800D03*
X138090000Y-40985800D03*
X140630000Y-40985800D03*
X143170000Y-40985800D03*
X145710000Y-40985800D03*
X148250000Y-40985800D03*
X150790000Y-40985800D03*
%TD*%
%TO.C,U4*%
X53890000Y-64988800D03*
X51350000Y-64988800D03*
X48810000Y-64988800D03*
X46270000Y-64988800D03*
X43730000Y-64988800D03*
X41190000Y-64988800D03*
X38650000Y-64988800D03*
X36110000Y-64988800D03*
X36110000Y-40985800D03*
X38650000Y-40985800D03*
X41190000Y-40985800D03*
X43730000Y-40985800D03*
X46270000Y-40985800D03*
X48810000Y-40985800D03*
X51350000Y-40985800D03*
X53890000Y-40985800D03*
%TD*%
D23*
%TO.C,U9*%
X36292000Y-48700000D03*
X37092000Y-48700000D03*
X37892000Y-48700000D03*
X38692000Y-48700000D03*
X39492000Y-48700000D03*
X40292000Y-48700000D03*
X41092000Y-48700000D03*
X41892000Y-48700000D03*
X42692000Y-48700000D03*
X43492000Y-48700000D03*
X44292000Y-48700000D03*
D24*
X45192000Y-49800000D03*
X45192000Y-50600000D03*
X45192000Y-51400000D03*
X45192000Y-52200000D03*
X45192000Y-53000000D03*
X45192000Y-53800000D03*
X45192000Y-54600000D03*
X45192000Y-55400000D03*
X45192000Y-56200000D03*
X45192000Y-57000000D03*
X45192000Y-57800000D03*
X45192000Y-58600000D03*
X45192000Y-59400000D03*
D23*
X44292000Y-60500000D03*
X43492000Y-60500000D03*
X42692000Y-60500000D03*
X41892000Y-60500000D03*
X41092000Y-60500000D03*
X40292000Y-60500000D03*
X39492000Y-60500000D03*
X38692000Y-60500000D03*
X37892000Y-60500000D03*
X37092000Y-60500000D03*
X36292000Y-60500000D03*
D24*
X35392000Y-59400000D03*
X35392000Y-58600000D03*
X35392000Y-57800000D03*
X35392000Y-57000000D03*
X35392000Y-56200000D03*
X35392000Y-55400000D03*
X35392000Y-54600000D03*
X35392000Y-53800000D03*
X35392000Y-53000000D03*
X35392000Y-52200000D03*
X35392000Y-51400000D03*
X35392000Y-50600000D03*
X35392000Y-49800000D03*
D25*
X42267000Y-52625000D03*
X40292000Y-52625000D03*
D26*
X38317000Y-52625000D03*
D25*
X42267000Y-54600000D03*
X40292000Y-54600000D03*
X38317000Y-54600000D03*
X42267000Y-56575000D03*
X40292000Y-56575000D03*
X38317000Y-56575000D03*
D27*
X35342000Y-60550000D03*
X45242000Y-60550000D03*
X45242000Y-48650000D03*
X35342000Y-48650000D03*
%TD*%
M02*
