M48
; DRILL file {KiCad 7.0.9} date Thursday, January 25, 2024 at 10:28:19 AM
; FORMAT={-:-/ absolute / inch / decimal}
; #@! TF.CreationDate,2024-01-25T10:28:19-08:00
; #@! TF.GenerationSoftware,Kicad,Pcbnew,7.0.9
; #@! TF.FileFunction,Plated,1,2,PTH
FMAT,2
INCH
; #@! TA.AperFunction,Plated,PTH,ViaDrill
T1C0.0157
; #@! TA.AperFunction,Plated,PTH,ComponentDrill
T2C0.0197
; #@! TA.AperFunction,Plated,PTH,ComponentDrill
T3C0.0217
; #@! TA.AperFunction,Plated,PTH,ComponentDrill
T4C0.0300
; #@! TA.AperFunction,Plated,PTH,ComponentDrill
T5C0.0394
%
G90
G05
T1
X1.8169Y-1.8446
X1.8415Y-1.9928
X1.87Y-1.925
X1.875Y-2.0876
X1.913Y-1.8145
X1.914Y-1.91
X1.986Y-1.769
X2.0849Y-1.8116
X2.116Y-2.1616
X2.1165Y-2.387
X2.118Y-1.7355
X2.142Y-1.8616
X2.149Y-2.4165
X2.174Y-1.9116
X2.18Y-1.962
X2.18Y-2.212
X2.3209Y-2.31
X2.3209Y-2.476
X2.3215Y-1.6565
X2.3215Y-2.012
X2.336Y-1.5585
X2.346Y-2.06
X2.35Y-2.111
X2.35Y-2.616
X2.378Y-2.26
X2.3814Y-1.5865
X2.439Y-2.6065
X2.5116Y-2.5405
X2.526Y-1.781
X2.547Y-2.164
X2.55Y-2.06
X2.553Y-2.6065
X2.5765Y-2.4622
X2.582Y-1.734
X2.585Y-1.6565
X2.6307Y-2.5267
X2.6534Y-1.6846
X2.6705Y-2.259
X2.6979Y-1.962
X2.728Y-2.208
X2.755Y-2.009
X2.755Y-1.863
X2.785Y-2.306
X2.8215Y-1.914
X2.883Y-1.754
X2.902Y-2.261
X2.936Y-2.053
X2.951Y-1.725
X3.0Y-2.158
X3.022Y-1.862
X3.022Y-2.453
X3.053Y-1.7831
X3.053Y-2.06
X3.093Y-2.2325
X3.118Y-2.483
X3.1215Y-2.112
X3.251Y-2.31
X3.285Y-2.01
X3.294Y-2.2641
X3.34Y-2.304
X3.342Y-1.679
X3.388Y-2.161
X3.391Y-1.91
X3.6019Y-2.569
X3.619Y-1.913
X3.6398Y-2.5489
X3.643Y-1.962
X3.67Y-2.011
X3.672Y-1.536
X3.672Y-1.859
X3.673Y-2.57
X3.966Y-1.749
X4.003Y-2.486
X4.007Y-2.156
X4.0079Y-1.917
X4.0364Y-1.719
X4.059Y-2.165
X4.108Y-1.79
X4.111Y-2.286
X4.124Y-2.1069
X4.1364Y-1.923
X4.163Y-2.112
X4.209Y-2.427
X4.211Y-1.783
X4.211Y-2.287
X4.2509Y-1.7991
X4.309Y-2.071
X4.311Y-2.169
X4.3603Y-2.2812
X4.361Y-2.471
X4.362Y-2.1405
X4.4035Y-2.2812
X4.409Y-1.922
X4.409Y-2.486
X4.432Y-2.312
X4.461Y-1.953
X4.47Y-2.286
X4.563Y-1.754
X4.624Y-2.223
X4.651Y-2.43
X4.664Y-1.772
X4.67Y-2.025
X4.743Y-1.933
X4.757Y-2.556
X5.0855Y-1.9248
X5.114Y-1.66
X5.114Y-2.17
X5.125Y-2.551
X5.164Y-2.291
X5.164Y-2.495
X5.213Y-2.091
X5.213Y-2.167
X5.2366Y-1.758
X5.255Y-2.4639
X5.2565Y-2.29
X5.2695Y-1.7865
X5.285Y-2.521
X5.319Y-1.9135
X5.3203Y-1.7937
X5.408Y-1.6885
X5.4081Y-1.803
X5.4127Y-2.2882
X5.4366Y-2.0615
X5.4579Y-2.2892
X5.4651Y-1.9135
X5.488Y-2.316
X5.562Y-2.0615
X5.563Y-2.174
X5.631Y-2.032
X5.631Y-2.323
X5.677Y-1.8295
X5.683Y-2.604
X5.89Y-2.037
X5.937Y-1.794
T4
X1.4217Y-1.6136
X1.4217Y-2.5586
X1.5217Y-1.6136
X1.5217Y-2.5586
X1.6217Y-1.6136
X1.6217Y-2.5586
X1.7217Y-1.6136
X1.7217Y-2.5586
X1.8217Y-1.6136
X1.8217Y-2.5586
X1.9217Y-1.6136
X1.9217Y-2.5586
X2.0217Y-1.6136
X2.0217Y-2.5586
X2.1217Y-1.6136
X2.1217Y-2.5586
X2.693Y-1.614
X2.693Y-2.559
X2.793Y-1.614
X2.793Y-2.559
X2.893Y-1.614
X2.893Y-2.559
X2.993Y-1.614
X2.993Y-2.559
X3.093Y-1.614
X3.093Y-2.559
X3.193Y-1.614
X3.193Y-2.559
X3.293Y-1.614
X3.293Y-2.559
X3.393Y-1.614
X3.393Y-2.559
X3.965Y-1.6136
X3.965Y-2.5586
X4.065Y-1.6136
X4.065Y-2.5586
X4.165Y-1.6136
X4.165Y-2.5586
X4.265Y-1.6136
X4.265Y-2.5586
X4.365Y-1.6136
X4.365Y-2.5586
X4.465Y-1.6136
X4.465Y-2.5586
X4.565Y-1.6136
X4.565Y-2.5586
X4.665Y-1.6136
X4.665Y-2.5586
X5.2366Y-1.6136
X5.2366Y-2.5586
X5.3366Y-1.6136
X5.3366Y-2.5586
X5.4366Y-1.6136
X5.4366Y-2.5586
X5.5366Y-1.6136
X5.5366Y-2.5586
X5.6366Y-1.6136
X5.6366Y-2.5586
X5.7366Y-1.6136
X5.7366Y-2.5586
X5.8366Y-1.6136
X5.8366Y-2.5586
X5.9366Y-1.6136
X5.9366Y-2.5586
T5
X2.02Y-1.902
X2.02Y-2.002
X2.02Y-2.102
X2.02Y-2.202
X2.02Y-2.302
T2
G00X6.1718Y-1.9488
M15
G01X6.1462Y-1.9488
M16
G05
G00X6.1718Y-2.2244
M15
G01X6.1462Y-2.2244
M16
G05
T3
G00X6.0527Y-1.9823
M15
G01X6.0527Y-1.9941
M16
G05
G00X6.0527Y-2.1791
M15
G01X6.0527Y-2.1909
M16
G05
T0
M30
